<svg xmlns="http://www.w3.org/2000/svg" viewBox="0 0 128 128" fill="none">
  <!-- רקע — עיגול כחול כהה -->
  <circle cx="64" cy="64" r="60" fill="#1e3a5f"/>
  <circle cx="64" cy="64" r="60" fill="url(#grad)" opacity="0.8"/>

  <!-- גרדיאנט -->
  <defs>
    <linearGradient id="grad" x1="0" y1="0" x2="128" y2="128">
      <stop offset="0%" stop-color="#3b82f6"/>
      <stop offset="100%" stop-color="#8b5cf6"/>
    </linearGradient>
  </defs>

  <!-- אות TS -->
  <text x="28" y="58" font-family="Arial, sans-serif" font-size="30" font-weight="700" fill="white">TS</text>

  <!-- אייקון AI — מוח/רשת -->
  <circle cx="64" cy="82" r="3" fill="#60a5fa"/>
  <circle cx="48" cy="88" r="2.5" fill="#60a5fa"/>
  <circle cx="80" cy="88" r="2.5" fill="#60a5fa"/>
  <circle cx="42" cy="76" r="2" fill="#60a5fa"/>
  <circle cx="86" cy="76" r="2" fill="#60a5fa"/>
  <circle cx="54" cy="96" r="2" fill="#60a5fa"/>
  <circle cx="74" cy="96" r="2" fill="#60a5fa"/>

  <!-- קווי חיבור -->
  <line x1="64" y1="82" x2="48" y2="88" stroke="#60a5fa" stroke-width="1" opacity="0.5"/>
  <line x1="64" y1="82" x2="80" y2="88" stroke="#60a5fa" stroke-width="1" opacity="0.5"/>
  <line x1="64" y1="82" x2="42" y2="76" stroke="#60a5fa" stroke-width="1" opacity="0.5"/>
  <line x1="64" y1="82" x2="86" y2="76" stroke="#60a5fa" stroke-width="1" opacity="0.5"/>
  <line x1="48" y1="88" x2="54" y2="96" stroke="#60a5fa" stroke-width="1" opacity="0.5"/>
  <line x1="80" y1="88" x2="74" y2="96" stroke="#60a5fa" stroke-width="1" opacity="0.5"/>
  <line x1="48" y1="88" x2="42" y2="76" stroke="#60a5fa" stroke-width="1" opacity="0.3"/>
  <line x1="80" y1="88" x2="86" y2="76" stroke="#60a5fa" stroke-width="1" opacity="0.3"/>

  <!-- זוהר מרכזי -->
  <circle cx="64" cy="82" r="8" fill="#3b82f6" opacity="0.15"/>
</svg>
